<svg width="457" height="287" viewBox="0 0 457 287" fill="none" xmlns="http://www.w3.org/2000/svg">
<path opacity="0.6" d="M7.09285 92C7.09285 93.7081 5.70813 95.0928 4 95.0928C2.29187 95.0928 0.907154 93.7081 0.907154 92C0.907154 90.2919 2.29187 88.9072 4 88.9072C5.70813 88.9072 7.09285 90.2919 7.09285 92ZM456.093 283C456.093 284.708 454.708 286.093 453 286.093C451.292 286.093 449.907 284.708 449.907 283C449.907 281.292 451.292 279.907 453 279.907C454.708 279.907 456.093 281.292 456.093 283ZM156.5 211.35H209V212.51H156.5V211.35ZM223.58 225.93V269H222.42V225.93H223.58ZM237 282.42H453V283.58H237V282.42ZM4 91.4201H128.5V92.5799H4V91.4201ZM143.08 106V197.93H141.92V106H143.08ZM128.5 91.4201C136.552 91.4201 143.08 97.9477 143.08 106H141.92C141.92 98.5883 135.912 92.5799 128.5 92.5799V91.4201ZM223.58 269C223.58 276.412 229.588 282.42 237 282.42V283.58C228.948 283.58 222.42 277.052 222.42 269H223.58ZM209 211.35C217.052 211.35 223.58 217.878 223.58 225.93H222.42C222.42 218.519 216.412 212.51 209 212.51V211.35ZM156.5 212.51C148.448 212.51 141.92 205.982 141.92 197.93H143.08C143.08 205.342 149.088 211.35 156.5 211.35V212.51Z" fill="url(#paint0_linear_2009_11957)"></path>
<path opacity="0.6" d="M27.0928 72C27.0928 73.7081 25.7081 75.0928 24 75.0928C22.2919 75.0928 20.9072 73.7081 20.9072 72C20.9072 70.2919 22.2919 68.9072 24 68.9072C25.7081 68.9072 27.0928 70.2919 27.0928 72ZM244.093 132C244.093 133.708 242.708 135.093 241 135.093C239.292 135.093 237.907 133.708 237.907 132C237.907 130.292 239.292 128.907 241 128.907C242.708 128.907 244.093 130.292 244.093 132ZM138.203 72V71.4201V72ZM198.5 131.42H241V132.58H198.5V131.42ZM24 71.4201H138.203V72.5799H24V71.4201ZM138.203 71.4201L170.5 71.4201V72.5799L138.203 72.5799V71.4201ZM185.08 86V118H183.92V86H185.08ZM170.5 71.4201C178.552 71.4201 185.08 77.9477 185.08 86H183.92C183.92 78.5883 177.912 72.5799 170.5 72.5799V71.4201ZM198.5 132.58C190.448 132.58 183.92 126.052 183.92 118H185.08C185.08 125.412 191.088 131.42 198.5 131.42V132.58Z" fill="url(#paint1_linear_2009_11957)"></path>
<path opacity="0.6" d="M7.09285 52.8547C7.09285 54.5629 5.70813 55.9476 4 55.9476C2.29187 55.9476 0.907154 54.5629 0.907154 52.8547C0.907154 51.1466 2.29187 49.7619 4 49.7619C5.70813 49.7619 7.09285 51.1466 7.09285 52.8547ZM416.093 239C416.093 240.708 414.708 242.093 413 242.093C411.292 242.093 409.907 240.708 409.907 239C409.907 237.292 411.292 235.907 413 235.907C414.708 235.907 416.093 237.292 416.093 239ZM283 196.429H313.5V197.589H283V196.429ZM328.08 211.009V225H326.92V211.009H328.08ZM341.5 238.42H413V239.58H341.5V238.42ZM269.58 52.8547V183.009H268.42V52.8547H269.58ZM4 52.2748H122.5V53.4347H4V52.2748ZM269.58 15V52.8547H268.42V15H269.58ZM135.92 38.8547V15H137.08V38.8547H135.92ZM150.5 0.420091H255V1.57991H150.5V0.420091ZM135.92 15C135.92 6.94774 142.448 0.420091 150.5 0.420091V1.57991C143.088 1.57991 137.08 7.58829 137.08 15H135.92ZM268.42 15C268.42 7.58829 262.412 1.57991 255 1.57991V0.420091C263.052 0.420091 269.58 6.94774 269.58 15H268.42ZM328.08 225C328.08 232.412 334.088 238.42 341.5 238.42V239.58C333.448 239.58 326.92 233.052 326.92 225H328.08ZM313.5 196.429C321.552 196.429 328.08 202.957 328.08 211.009H326.92C326.92 203.597 320.912 197.589 313.5 197.589V196.429ZM122.5 52.2748C129.912 52.2748 135.92 46.2665 135.92 38.8547H137.08C137.08 46.907 130.552 53.4347 122.5 53.4347V52.2748ZM283 197.589C274.948 197.589 268.42 191.061 268.42 183.009H269.58C269.58 190.421 275.588 196.429 283 196.429V197.589Z" fill="url(#paint2_linear_2009_11957)"></path>
<defs>
<linearGradient id="paint0_linear_2009_11957" x1="453" y1="283" x2="21.2034" y2="79.4853" gradientUnits="userSpaceOnUse">
<stop stop-color="#ABBEFF" stop-opacity="0"></stop>
<stop offset="1" stop-color="#81B9F8"></stop>
</linearGradient>
<linearGradient id="paint1_linear_2009_11957" x1="241" y1="132" x2="73.8463" y2="10.7929" gradientUnits="userSpaceOnUse">
<stop stop-color="#ABBEFF" stop-opacity="0"></stop>
<stop offset="1" stop-color="#81B9F8"></stop>
</linearGradient>
<linearGradient id="paint2_linear_2009_11957" x1="413" y1="239" x2="-16.6941" y2="90.9497" gradientUnits="userSpaceOnUse">
<stop stop-color="#ABBEFF" stop-opacity="0"></stop>
<stop offset="1" stop-color="#81B9F8"></stop>
</linearGradient>
</defs>
</svg>