<svg width="457" height="287" viewBox="0 0 457 287" fill="none" xmlns="http://www.w3.org/2000/svg">
<path opacity="0.6" d="M449.907 92C449.907 93.7081 451.292 95.0928 453 95.0928C454.708 95.0928 456.093 93.7081 456.093 92C456.093 90.2919 454.708 88.9072 453 88.9072C451.292 88.9072 449.907 90.2919 449.907 92ZM0.907154 283C0.907154 284.708 2.29187 286.093 4 286.093C5.70813 286.093 7.09285 284.708 7.09285 283C7.09285 281.292 5.70813 279.907 4 279.907C2.29187 279.907 0.907154 281.292 0.907154 283ZM300.5 211.35H248V212.51H300.5V211.35ZM233.42 225.93V269H234.58V225.93H233.42ZM220 282.42H4V283.58H220V282.42ZM453 91.4201H328.5V92.5799H453V91.4201ZM313.92 106V197.93H315.08V106H313.92ZM328.5 91.4201C320.448 91.4201 313.92 97.9477 313.92 106H315.08C315.08 98.5883 321.088 92.5799 328.5 92.5799V91.4201ZM233.42 269C233.42 276.412 227.412 282.42 220 282.42V283.58C228.052 283.58 234.58 277.052 234.58 269H233.42ZM248 211.35C239.948 211.35 233.42 217.878 233.42 225.93H234.58C234.58 218.519 240.588 212.51 248 212.51V211.35ZM300.5 212.51C308.552 212.51 315.08 205.982 315.08 197.93H313.92C313.92 205.342 307.912 211.35 300.5 211.35V212.51Z" fill="url(#paint0_linear_2009_11953)"></path>
<path opacity="0.6" d="M429.907 72C429.907 73.7081 431.292 75.0928 433 75.0928C434.708 75.0928 436.093 73.7081 436.093 72C436.093 70.2919 434.708 68.9072 433 68.9072C431.292 68.9072 429.907 70.2919 429.907 72ZM212.907 132C212.907 133.708 214.292 135.093 216 135.093C217.708 135.093 219.093 133.708 219.093 132C219.093 130.292 217.708 128.907 216 128.907C214.292 128.907 212.907 130.292 212.907 132ZM318.797 72V71.4201V72ZM258.5 131.42H216V132.58H258.5V131.42ZM433 71.4201H318.797V72.5799H433V71.4201ZM318.797 71.4201L286.5 71.4201V72.5799L318.797 72.5799V71.4201ZM271.92 86V118H273.08V86H271.92ZM286.5 71.4201C278.448 71.4201 271.92 77.9477 271.92 86H273.08C273.08 78.5883 279.088 72.5799 286.5 72.5799V71.4201ZM258.5 132.58C266.552 132.58 273.08 126.052 273.08 118H271.92C271.92 125.412 265.912 131.42 258.5 131.42V132.58Z" fill="url(#paint1_linear_2009_11953)"></path>
<path opacity="0.6" d="M449.907 52.8547C449.907 54.5629 451.292 55.9476 453 55.9476C454.708 55.9476 456.093 54.5629 456.093 52.8547C456.093 51.1466 454.708 49.7619 453 49.7619C451.292 49.7619 449.907 51.1466 449.907 52.8547ZM40.9072 239C40.9072 240.708 42.2919 242.093 44 242.093C45.7081 242.093 47.0928 240.708 47.0928 239C47.0928 237.292 45.7081 235.907 44 235.907C42.2919 235.907 40.9072 237.292 40.9072 239ZM174 196.429H143.5V197.589H174V196.429ZM128.92 211.009V225H130.08V211.009H128.92ZM115.5 238.42H44V239.58H115.5V238.42ZM187.42 52.8547V183.009H188.58V52.8547H187.42ZM453 52.2748H334.5V53.4347H453V52.2748ZM187.42 15V52.8547H188.58V15H187.42ZM321.08 38.8547V15H319.92V38.8547H321.08ZM306.5 0.420091H202V1.57991H306.5V0.420091ZM321.08 15C321.08 6.94774 314.552 0.420091 306.5 0.420091V1.57991C313.912 1.57991 319.92 7.58829 319.92 15H321.08ZM188.58 15C188.58 7.58829 194.588 1.57991 202 1.57991V0.420091C193.948 0.420091 187.42 6.94774 187.42 15H188.58ZM128.92 225C128.92 232.412 122.912 238.42 115.5 238.42V239.58C123.552 239.58 130.08 233.052 130.08 225H128.92ZM143.5 196.429C135.448 196.429 128.92 202.957 128.92 211.009H130.08C130.08 203.597 136.088 197.589 143.5 197.589V196.429ZM334.5 52.2748C327.088 52.2748 321.08 46.2665 321.08 38.8547H319.92C319.92 46.907 326.448 53.4347 334.5 53.4347V52.2748ZM174 197.589C182.052 197.589 188.58 191.061 188.58 183.009H187.42C187.42 190.421 181.412 196.429 174 196.429V197.589Z" fill="url(#paint2_linear_2009_11953)"></path>
<defs>
<linearGradient id="paint0_linear_2009_11953" x1="4" y1="283" x2="454.859" y2="274.459" gradientUnits="userSpaceOnUse">
<stop stop-color="#FFEDAB" stop-opacity="0"></stop>
<stop offset="1" stop-color="#F3D381"></stop>
</linearGradient>
<linearGradient id="paint1_linear_2009_11953" x1="216" y1="132" x2="433.792" y2="125.652" gradientUnits="userSpaceOnUse">
<stop stop-color="#FFEDAB" stop-opacity="0"></stop>
<stop offset="1" stop-color="#F3D381"></stop>
</linearGradient>
<linearGradient id="paint2_linear_2009_11953" x1="44" y1="239" x2="454.762" y2="233.312" gradientUnits="userSpaceOnUse">
<stop stop-color="#FFEDAB" stop-opacity="0"></stop>
<stop offset="1" stop-color="#F3D381"></stop>
</linearGradient>
</defs>
</svg>